# MagicaVoxel @ Ephtracy

# group
o 

# material
mtllib Mine.mtl
usemtl palette

# normals
vn -1 0 0 # 1
vn 1 0 0 # 2
vn 0 0 1 # 3
vn 0 0 -1 # 4
vn 0 -1 0 # 5
vn 0 1 0 # 6

# texcoords
vt 0.0917969 0.5
vt 0.958984 0.5

# verts
v -6.4 -6.4 -6.4 # 1 - left bottom back
v 6.4 -6.4 -6.4 # 2 - right bottom back
v -6.4 6.4 -6.4 # 3 - left top back
v -6.4 -6.4 6.4 # 4 - left bottom front
v 6.4 6.4 -6.4 # 5 - right top back
v 6.4 -6.4 6.4 # 6 - right bottom front
v -6.4 6.4 6.4 # 7 - left top front
v 6.4 6.4 6.4 # 8 - right top front

# faces
f 3/2/6 7/1/6 8/1/6
f 8/1/6 5/1/6 3/2/6
f 1/1/5 2/1/5 6/1/5
f 6/1/5 4/1/5 1/1/5
f 5/1/4 2/1/4 1/1/4
f 1/1/4 3/2/4 5/1/4
f 4/1/3 6/1/3 8/1/3
f 8/1/3 7/1/3 4/1/3
f 2/1/2 5/1/2 8/1/2
f 8/1/2 6/1/2 2/1/2
f 1/1/1 4/1/1 3/2/1
f 3/2/1 4/1/1 7/1/1