# MagicaVoxel @ Ephtracy

# group
o 

# material
mtllib Mine4-5.mtl
usemtl palette

# normals
vn -1 0 0
vn 1 0 0
vn 0 0 1
vn 0 0 -1
vn 0 -1 0
vn 0 1 0

# texcoords
vt 0.0878906 0.5
vt 0.705078 0.5
vt 0.970703 0.5

# verts
v -1 -0.3 -1.7
v -1 -0.3 -3.8
v -1 -0.3 -3.9
v -1 0.3 -1.7
v -1 0.3 -3.8
v -1 0.3 -3.9
v -0.9 -0.5 -1.7
v -0.9 -0.5 -3.8
v -0.9 -0.5 -3.9
v -0.9 -0.3 -1.7
v -0.9 -0.3 -3.8
v -0.9 -0.3 -3.9
v -0.9 0.3 -1.7
v -0.9 0.3 -1.9
v -0.9 0.3 -3.8
v -0.9 0.3 -3.9
v -0.9 0.5 -1.7
v -0.9 0.5 -1.9
v -0.9 0.5 -3.8
v -0.9 0.5 -3.9
v -0.8 -0.7 -1.7
v -0.8 -0.7 -3.8
v -0.8 -0.7 -3.9
v -0.8 -0.5 -1.7
v -0.8 -0.5 -3.8
v -0.8 -0.5 -3.9
v -0.8 0.5 -1.7
v -0.8 0.5 -1.9
v -0.8 0.5 -3.8
v -0.8 0.5 -3.9
v -0.8 0.6 -1.9
v -0.8 0.6 -2.2
v -0.8 0.6 -3.8
v -0.8 0.7 -1.7
v -0.8 0.7 -2.2
v -0.8 0.7 -3.8
v -0.8 0.7 -3.9
v -0.7 -0.8 -1.7
v -0.7 -0.8 -3.8
v -0.7 -0.8 -3.9
v -0.7 -0.7 -1.7
v -0.7 -0.7 -3.8
v -0.7 -0.7 -3.9
v -0.7 0.7 -3.8
v -0.7 0.7 -3.9
v -0.7 0.8 -3.8
v -0.7 0.8 -3.9
v -0.5 -0.9 -1.7
v -0.5 -0.9 -3.8
v -0.5 -0.9 -3.9
v -0.5 -0.8 -1.7
v -0.5 -0.8 -3.8
v -0.5 -0.8 -3.9
v -0.5 0.8 -3.8
v -0.5 0.8 -3.9
v -0.5 0.9 -3.8
v -0.5 0.9 -3.9
v -0.3 -1 -1.7
v -0.3 -1 -3.8
v -0.3 -1 -3.9
v -0.3 -0.9 -1.7
v -0.3 -0.9 -3.8
v -0.3 -0.9 -3.9
v -0.3 0.9 -3.8
v -0.3 0.9 -3.9
v -0.3 1 -3.8
v -0.3 1 -3.9
v -0.7 0.3 -1.7
v -0.7 0.3 -1.9
v -0.7 0.6 -1.9
v -0.7 0.6 -2.2
v -0.7 0.7 -1.7
v -0.7 0.7 -2.2
v -0.4 0.3 -1.9
v -0.4 0.3 -2.2
v -0.4 0.3 -2.5
v -0.4 0.6 -1.9
v -0.4 0.6 -2.2
v -0.4 0.6 -2.5
v -0.0999999 -0.0999999 -1.7
v -0.0999999 -0.0999999 -1.9
v -0.0999999 0.3 -1.7
v -0.0999999 0.3 -1.9
v 0.3 -1 -1.7
v 0.3 -1 -3.8
v 0.3 -1 -3.9
v 0.3 -0.9 -1.7
v 0.3 -0.9 -1.9
v 0.3 -0.9 -3.8
v 0.3 -0.9 -3.9
v 0.3 -0.4 -1.7
v 0.3 -0.4 -1.9
v 0.3 -0.0999999 -1.7
v 0.3 -0.0999999 -1.9
v 0.3 -0.0999999 -2.2
v 0.3 0.3 -1.9
v 0.3 0.3 -2.2
v 0.3 0.3 -2.5
v 0.3 0.3 -2.9
v 0.3 0.6 -2.5
v 0.3 0.6 -2.9
v 0.3 0.9 -3.8
v 0.3 0.9 -3.9
v 0.3 1 -3.8
v 0.3 1 -3.9
v 0.5 -0.9 -1.7
v 0.5 -0.9 -1.9
v 0.5 -0.9 -3.8
v 0.5 -0.9 -3.9
v 0.5 -0.8 -1.7
v 0.5 -0.8 -1.9
v 0.5 -0.8 -3.8
v 0.5 -0.8 -3.9
v 0.5 0.8 -3.8
v 0.5 0.8 -3.9
v 0.5 0.9 -3.8
v 0.5 0.9 -3.9
v 0.6 -0.7 -1.7
v 0.6 -0.7 -1.9
v 0.6 -0.4 -1.7
v 0.6 -0.4 -1.9
v 0.6 -0.0999999 -2.2
v 0.6 -0.0999999 -2.5
v 0.6 0.3 -2.2
v 0.6 0.3 -2.5
v 0.7 -0.8 -1.7
v 0.7 -0.8 -2.2
v 0.7 -0.8 -3.8
v 0.7 -0.8 -3.9
v 0.7 -0.7 -1.7
v 0.7 -0.7 -1.9
v 0.7 -0.7 -2.2
v 0.7 -0.7 -2.5
v 0.7 -0.7 -3.8
v 0.7 -0.7 -3.9
v 0.7 0.7 -3.8
v 0.7 0.7 -3.9
v 0.7 0.8 -3.8
v 0.7 0.8 -3.9
v 0.8 -0.7 -1.9
v 0.8 -0.7 -2.5
v 0.8 -0.7 -3.8
v 0.8 -0.7 -3.9
v 0.8 -0.5 -1.9
v 0.8 -0.5 -2.5
v 0.8 -0.5 -3.8
v 0.8 -0.5 -3.9
v 0.8 0.5 -2.9
v 0.8 0.5 -3.8
v 0.8 0.5 -3.9
v 0.8 0.6 -2.9
v 0.8 0.6 -3.8
v 0.8 0.7 -3.8
v 0.8 0.7 -3.9
v 0.9 -0.5 -1.9
v 0.9 -0.5 -2.5
v 0.9 -0.5 -3.8
v 0.9 -0.5 -3.9
v 0.9 -0.3 -2.2
v 0.9 -0.3 -2.5
v 0.9 -0.3 -2.9
v 0.9 -0.3 -3.8
v 0.9 -0.3 -3.9
v 0.9 -0.0999999 -1.9
v 0.9 -0.0999999 -2.2
v 0.9 0.3 -2.9
v 0.9 0.3 -3.1
v 0.9 0.3 -3.8
v 0.9 0.3 -3.9
v 0.9 0.5 -2.9
v 0.9 0.5 -3.8
v 0.9 0.5 -3.9
v 1 -0.3 -2.2
v 1 -0.3 -2.9
v 1 -0.3 -3.8
v 1 -0.3 -3.9
v 1 -0.0999999 -2.2
v 1 -0.0999999 -2.5
v 1 -0.0999999 -2.9
v 1 -0.0999999 -3.1
v 1 0.3 -2.5
v 1 0.3 -3.1
v 1 0.3 -3.8
v 1 0.3 -3.9
v -1 -0.3 -1.7
v -1 0.3 -1.7
v -0.9 -0.5 -1.7
v -0.9 -0.3 -1.7
v -0.9 0.3 -1.7
v -0.9 0.5 -1.7
v -0.8 -0.7 -1.7
v -0.8 -0.5 -1.7
v -0.8 0.5 -1.7
v -0.8 0.7 -1.7
v -0.7 -0.8 -1.7
v -0.7 -0.7 -1.7
v -0.7 -0.0999999 -1.7
v -0.7 0.3 -1.7
v -0.7 0.7 -1.7
v -0.5 -0.9 -1.7
v -0.5 -0.8 -1.7
v -0.4 -0.4 -1.7
v -0.4 -0.0999999 -1.7
v -0.3 -1 -1.7
v -0.3 -0.9 -1.7
v -0.0999999 -0.7 -1.7
v -0.0999999 -0.4 -1.7
v -0.0999999 -0.0999999 -1.7
v -0.0999999 0.3 -1.7
v 0.3 -1 -1.7
v 0.3 -0.9 -1.7
v 0.3 -0.7 -1.7
v 0.3 -0.4 -1.7
v 0.3 -0.0999999 -1.7
v 0.5 -0.9 -1.7
v 0.5 -0.8 -1.7
v 0.6 -0.7 -1.7
v 0.6 -0.4 -1.7
v 0.7 -0.8 -1.7
v 0.7 -0.7 -1.7
v -0.7 0.3 -1.9
v -0.7 0.6 -1.9
v -0.4 0.3 -1.9
v -0.4 0.6 -1.9
v -0.0999999 -0.0999999 -1.9
v -0.0999999 0.3 -1.9
v 0.3 -0.4 -1.9
v 0.3 -0.0999999 -1.9
v 0.3 0.3 -1.9
v 0.6 -0.7 -1.9
v 0.6 -0.4 -1.9
v 0.7 -0.7 -1.9
v 0.8 -0.7 -1.9
v 0.8 -0.5 -1.9
v 0.9 -0.5 -1.9
v 0.9 -0.0999999 -1.9
v 0.3 -0.0999999 -2.2
v 0.3 0.3 -2.2
v 0.6 -0.0999999 -2.2
v 0.6 0.3 -2.2
v 0.9 -0.3 -2.2
v 0.9 -0.0999999 -2.2
v 1 -0.3 -2.2
v 1 -0.0999999 -2.2
v -0.4 0.3 -2.5
v -0.4 0.6 -2.5
v -0.0999999 0.3 -2.5
v 0.3 0.3 -2.5
v 0.3 0.6 -2.5
v 0.6 -0.0999999 -2.5
v 0.6 0.3 -2.5
v 1 -0.0999999 -2.5
v 1 0.3 -2.5
v 0.3 0.3 -2.9
v 0.3 0.6 -2.9
v 0.6 0.3 -2.9
v 0.8 0.5 -2.9
v 0.8 0.6 -2.9
v 0.9 0.3 -2.9
v 0.9 0.5 -2.9
v -0.8 0.6 -3.8
v -0.8 0.7 -3.8
v -0.7 0.7 -3.8
v -0.7 0.8 -3.8
v -0.5 0.8 -3.8
v -0.5 0.9 -3.8
v -0.3 0.9 -3.8
v -0.3 1 -3.8
v 0.3 0.9 -3.8
v 0.3 1 -3.8
v 0.5 0.8 -3.8
v 0.5 0.9 -3.8
v 0.7 0.7 -3.8
v 0.7 0.8 -3.8
v 0.8 0.6 -3.8
v 0.8 0.7 -3.8
v -0.8 0.6 -2.2
v -0.8 0.7 -2.2
v -0.7 0.6 -2.2
v -0.7 0.7 -2.2
v -1 -0.3 -3.9
v -1 0.3 -3.9
v -0.9 -0.5 -3.9
v -0.9 -0.3 -3.9
v -0.9 0.3 -3.9
v -0.9 0.5 -3.9
v -0.8 -0.7 -3.9
v -0.8 -0.5 -3.9
v -0.8 0.5 -3.9
v -0.8 0.7 -3.9
v -0.7 -0.8 -3.9
v -0.7 -0.7 -3.9
v -0.7 0.7 -3.9
v -0.7 0.8 -3.9
v -0.5 -0.9 -3.9
v -0.5 -0.8 -3.9
v -0.5 0.8 -3.9
v -0.5 0.9 -3.9
v -0.3 -1 -3.9
v -0.3 -0.9 -3.9
v -0.3 0.9 -3.9
v -0.3 1 -3.9
v 0.3 -1 -3.9
v 0.3 -0.9 -3.9
v 0.3 0.9 -3.9
v 0.3 1 -3.9
v 0.5 -0.9 -3.9
v 0.5 -0.8 -3.9
v 0.5 0.8 -3.9
v 0.5 0.9 -3.9
v 0.7 -0.8 -3.9
v 0.7 -0.7 -3.9
v 0.7 0.7 -3.9
v 0.7 0.8 -3.9
v 0.8 -0.7 -3.9
v 0.8 -0.5 -3.9
v 0.8 0.5 -3.9
v 0.8 0.7 -3.9
v 0.9 -0.5 -3.9
v 0.9 -0.3 -3.9
v 0.9 0.3 -3.9
v 0.9 0.5 -3.9
v 1 -0.3 -3.9
v 1 0.3 -3.9
v -0.3 -1 -1.7
v 0.3 -1 -1.7
v -0.3 -1 -3.8
v 0.3 -1 -3.8
v -0.3 -1 -3.9
v 0.3 -1 -3.9
v -0.5 -0.9 -1.7
v -0.3 -0.9 -1.7
v 0.3 -0.9 -1.7
v 0.5 -0.9 -1.7
v 0.3 -0.9 -1.9
v 0.5 -0.9 -1.9
v -0.5 -0.9 -3.8
v -0.3 -0.9 -3.8
v 0.3 -0.9 -3.8
v 0.5 -0.9 -3.8
v -0.5 -0.9 -3.9
v -0.3 -0.9 -3.9
v 0.3 -0.9 -3.9
v 0.5 -0.9 -3.9
v -0.7 -0.8 -1.7
v -0.5 -0.8 -1.7
v 0.5 -0.8 -1.7
v 0.7 -0.8 -1.7
v 0.5 -0.8 -1.9
v 0.6 -0.8 -1.9
v 0.6 -0.8 -2.2
v 0.7 -0.8 -2.2
v -0.7 -0.8 -3.8
v -0.5 -0.8 -3.8
v 0.5 -0.8 -3.8
v 0.7 -0.8 -3.8
v -0.7 -0.8 -3.9
v -0.5 -0.8 -3.9
v 0.5 -0.8 -3.9
v 0.7 -0.8 -3.9
v -0.8 -0.7 -1.7
v -0.7 -0.7 -1.7
v 0.7 -0.7 -1.9
v 0.8 -0.7 -1.9
v 0.7 -0.7 -2.2
v 0.7 -0.7 -2.5
v 0.8 -0.7 -2.5
v -0.8 -0.7 -3.8
v -0.7 -0.7 -3.8
v 0.7 -0.7 -3.8
v 0.8 -0.7 -3.8
v -0.8 -0.7 -3.9
v -0.7 -0.7 -3.9
v 0.7 -0.7 -3.9
v 0.8 -0.7 -3.9
v -0.9 -0.5 -1.7
v -0.8 -0.5 -1.7
v 0.8 -0.5 -1.9
v 0.9 -0.5 -1.9
v 0.8 -0.5 -2.5
v 0.9 -0.5 -2.5
v -0.9 -0.5 -3.8
v -0.8 -0.5 -3.8
v 0.8 -0.5 -3.8
v 0.9 -0.5 -3.8
v -0.9 -0.5 -3.9
v -0.8 -0.5 -3.9
v 0.8 -0.5 -3.9
v 0.9 -0.5 -3.9
v -1 -0.3 -1.7
v -0.9 -0.3 -1.7
v 0.9 -0.3 -2.2
v 1 -0.3 -2.2
v 0.9 -0.3 -2.5
v 0.9 -0.3 -2.9
v 1 -0.3 -2.9
v -1 -0.3 -3.8
v -0.9 -0.3 -3.8
v 0.9 -0.3 -3.8
v 1 -0.3 -3.8
v -1 -0.3 -3.9
v -0.9 -0.3 -3.9
v 0.9 -0.3 -3.9
v 1 -0.3 -3.9
v 0.6 -0.7 -1.7
v 0.7 -0.7 -1.7
v 0.6 -0.7 -1.9
v 0.7 -0.7 -1.9
v 0.3 -0.4 -1.7
v 0.6 -0.4 -1.7
v 0.3 -0.4 -1.9
v 0.6 -0.4 -1.9
v -0.0999999 -0.0999999 -1.7
v 0.3 -0.0999999 -1.7
v -0.0999999 -0.0999999 -1.9
v 0.3 -0.0999999 -1.9
v 0.9 -0.0999999 -1.9
v 0.3 -0.0999999 -2.2
v 0.6 -0.0999999 -2.2
v 0.9 -0.0999999 -2.2
v 1 -0.0999999 -2.2
v 0.6 -0.0999999 -2.5
v 1 -0.0999999 -2.5
v -1 0.3 -1.7
v -0.9 0.3 -1.7
v -0.7 0.3 -1.7
v -0.0999999 0.3 -1.7
v -0.9 0.3 -1.9
v -0.7 0.3 -1.9
v -0.4 0.3 -1.9
v -0.0999999 0.3 -1.9
v 0.3 0.3 -1.9
v -0.4 0.3 -2.2
v -0.0999999 0.3 -2.2
v 0.3 0.3 -2.2
v 0.6 0.3 -2.2
v -0.4 0.3 -2.5
v -0.0999999 0.3 -2.5
v 0.3 0.3 -2.5
v 0.6 0.3 -2.5
v 1 0.3 -2.5
v 0.3 0.3 -2.9
v 0.6 0.3 -2.9
v 0.9 0.3 -2.9
v 0.9 0.3 -3.1
v 1 0.3 -3.1
v -1 0.3 -3.8
v -0.9 0.3 -3.8
v 0.9 0.3 -3.8
v 1 0.3 -3.8
v -1 0.3 -3.9
v -0.9 0.3 -3.9
v 0.9 0.3 -3.9
v 1 0.3 -3.9
v -0.9 0.5 -1.7
v -0.8 0.5 -1.7
v -0.9 0.5 -1.9
v -0.8 0.5 -1.9
v 0.8 0.5 -2.9
v 0.9 0.5 -2.9
v -0.9 0.5 -3.8
v -0.8 0.5 -3.8
v 0.8 0.5 -3.8
v 0.9 0.5 -3.8
v -0.9 0.5 -3.9
v -0.8 0.5 -3.9
v 0.8 0.5 -3.9
v 0.9 0.5 -3.9
v -0.7 0.6 -1.9
v -0.4 0.6 -1.9
v -0.8 0.6 -2.2
v -0.7 0.6 -2.2
v -0.4 0.6 -2.2
v -0.4 0.6 -2.5
v 0.3 0.6 -2.5
v 0.3 0.6 -2.9
v 0.8 0.6 -2.9
v -0.8 0.6 -3.8
v 0.8 0.6 -3.8
v -0.8 0.7 -1.7
v -0.7 0.7 -1.7
v -0.8 0.7 -2.2
v -0.7 0.7 -2.2
v -0.8 0.7 -3.8
v -0.7 0.7 -3.8
v 0.7 0.7 -3.8
v 0.8 0.7 -3.8
v -0.8 0.7 -3.9
v -0.7 0.7 -3.9
v 0.7 0.7 -3.9
v 0.8 0.7 -3.9
v -0.7 0.8 -3.8
v -0.5 0.8 -3.8
v 0.5 0.8 -3.8
v 0.7 0.8 -3.8
v -0.7 0.8 -3.9
v -0.5 0.8 -3.9
v 0.5 0.8 -3.9
v 0.7 0.8 -3.9
v -0.5 0.9 -3.8
v -0.3 0.9 -3.8
v 0.3 0.9 -3.8
v 0.5 0.9 -3.8
v -0.5 0.9 -3.9
v -0.3 0.9 -3.9
v 0.3 0.9 -3.9
v 0.5 0.9 -3.9
v -0.3 1 -3.8
v 0.3 1 -3.8
v -0.3 1 -3.9
v 0.3 1 -3.9

# faces
f 4/3/1 2/3/1 1/3/1
f 5/2/1 3/2/1 2/2/1
f 5/3/1 2/3/1 4/3/1
f 6/2/1 3/2/1 5/2/1
f 10/3/1 8/3/1 7/3/1
f 11/2/1 9/2/1 8/2/1
f 11/3/1 8/3/1 10/3/1
f 12/2/1 9/2/1 11/2/1
f 17/1/1 14/1/1 13/1/1
f 18/3/1 15/3/1 14/3/1
f 18/1/1 14/1/1 17/1/1
f 19/2/1 16/2/1 15/2/1
f 19/3/1 15/3/1 18/3/1
f 20/2/1 16/2/1 19/2/1
f 24/3/1 22/3/1 21/3/1
f 25/2/1 23/2/1 22/2/1
f 25/3/1 22/3/1 24/3/1
f 26/2/1 23/2/1 25/2/1
f 31/1/1 28/1/1 27/1/1
f 31/3/1 29/3/1 28/3/1
f 32/3/1 29/3/1 31/3/1
f 33/2/1 30/2/1 29/2/1
f 33/3/1 29/3/1 32/3/1
f 34/1/1 32/1/1 31/1/1
f 34/1/1 31/1/1 27/1/1
f 35/1/1 32/1/1 34/1/1
f 36/2/1 30/2/1 33/2/1
f 37/2/1 30/2/1 36/2/1
f 41/3/1 39/3/1 38/3/1
f 42/2/1 40/2/1 39/2/1
f 42/3/1 39/3/1 41/3/1
f 43/2/1 40/2/1 42/2/1
f 46/2/1 45/2/1 44/2/1
f 47/2/1 45/2/1 46/2/1
f 51/3/1 49/3/1 48/3/1
f 52/2/1 50/2/1 49/2/1
f 52/3/1 49/3/1 51/3/1
f 53/2/1 50/2/1 52/2/1
f 56/2/1 55/2/1 54/2/1
f 57/2/1 55/2/1 56/2/1
f 61/3/1 59/3/1 58/3/1
f 62/2/1 60/2/1 59/2/1
f 62/3/1 59/3/1 61/3/1
f 63/2/1 60/2/1 62/2/1
f 66/2/1 65/2/1 64/2/1
f 67/2/1 65/2/1 66/2/1
f 68/1/2 69/1/2 70/1/2
f 68/1/2 70/1/2 72/1/2
f 70/1/2 71/1/2 72/1/2
f 72/1/2 71/1/2 73/1/2
f 74/1/2 75/1/2 77/1/2
f 75/3/2 76/3/2 78/3/2
f 77/1/2 75/1/2 78/1/2
f 78/3/2 76/3/2 79/3/2
f 80/1/2 81/1/2 82/1/2
f 82/1/2 81/1/2 83/1/2
f 84/3/2 85/3/2 87/3/2
f 87/3/2 85/3/2 88/3/2
f 85/2/2 86/2/2 89/2/2
f 88/3/2 85/3/2 89/3/2
f 89/2/2 86/2/2 90/2/2
f 91/1/2 92/1/2 93/1/2
f 93/1/2 92/1/2 94/1/2
f 94/1/2 95/1/2 96/1/2
f 96/1/2 95/1/2 97/1/2
f 98/3/2 99/3/2 100/3/2
f 100/3/2 99/3/2 101/3/2
f 102/2/2 103/2/2 104/2/2
f 104/2/2 103/2/2 105/2/2
f 106/1/2 107/1/2 110/1/2
f 107/3/2 108/3/2 111/3/2
f 110/1/2 107/1/2 111/1/2
f 108/2/2 109/2/2 112/2/2
f 111/3/2 108/3/2 112/3/2
f 112/2/2 109/2/2 113/2/2
f 114/2/2 115/2/2 116/2/2
f 116/2/2 115/2/2 117/2/2
f 118/1/2 119/1/2 120/1/2
f 120/1/2 119/1/2 121/1/2
f 122/1/2 123/1/2 124/1/2
f 124/1/2 123/1/2 125/1/2
f 126/1/2 127/1/2 130/1/2
f 130/1/2 127/1/2 131/1/2
f 127/3/2 128/3/2 132/3/2
f 131/1/2 127/1/2 132/1/2
f 132/3/2 128/3/2 133/3/2
f 128/2/2 129/2/2 134/2/2
f 133/3/2 128/3/2 134/3/2
f 134/2/2 129/2/2 135/2/2
f 136/2/2 137/2/2 138/2/2
f 138/2/2 137/2/2 139/2/2
f 140/1/2 141/1/2 144/1/2
f 141/3/2 142/3/2 145/3/2
f 144/1/2 141/1/2 145/1/2
f 142/2/2 143/2/2 146/2/2
f 145/3/2 142/3/2 146/3/2
f 146/2/2 143/2/2 147/2/2
f 148/3/2 149/3/2 151/3/2
f 149/2/2 150/2/2 152/2/2
f 151/3/2 149/3/2 152/3/2
f 152/2/2 150/2/2 153/2/2
f 153/2/2 150/2/2 154/2/2
f 155/1/2 156/1/2 159/1/2
f 156/3/2 157/3/2 160/3/2
f 159/1/2 156/1/2 160/1/2
f 160/3/2 157/3/2 161/3/2
f 157/2/2 158/2/2 162/2/2
f 161/3/2 157/3/2 162/3/2
f 162/2/2 158/2/2 163/2/2
f 155/1/2 159/1/2 164/1/2
f 164/1/2 159/1/2 165/1/2
f 166/3/2 167/3/2 170/3/2
f 167/3/2 168/3/2 170/3/2
f 168/2/2 169/2/2 171/2/2
f 170/3/2 168/3/2 171/3/2
f 171/2/2 169/2/2 172/2/2
f 173/1/2 174/1/2 177/1/2
f 177/1/2 174/1/2 178/1/2
f 174/3/2 175/3/2 179/3/2
f 178/1/2 174/1/2 179/1/2
f 179/3/2 175/3/2 180/3/2
f 178/1/2 179/1/2 181/1/2
f 179/1/2 180/1/2 181/1/2
f 180/3/2 175/3/2 182/3/2
f 181/1/2 180/1/2 182/1/2
f 175/2/2 176/2/2 183/2/2
f 182/3/2 175/3/2 183/3/2
f 183/2/2 176/2/2 184/2/2
f 188/3/3 186/3/3 185/3/3
f 189/3/3 186/3/3 188/3/3
f 192/3/3 188/3/3 187/3/3
f 192/3/3 189/3/3 188/3/3
f 193/1/3 190/1/3 189/1/3
f 196/3/3 192/3/3 191/3/3
f 197/3/3 189/3/3 192/3/3
f 197/3/3 192/3/3 196/3/3
f 198/1/3 194/1/3 193/1/3
f 198/3/3 189/3/3 197/3/3
f 198/1/3 193/1/3 189/1/3
f 199/1/3 194/1/3 198/1/3
f 201/3/3 197/3/3 196/3/3
f 201/3/3 196/3/3 195/3/3
f 202/3/3 197/3/3 201/3/3
f 202/3/3 201/3/3 200/3/3
f 203/1/3 198/1/3 197/1/3
f 203/3/3 197/3/3 202/3/3
f 205/3/3 202/3/3 200/3/3
f 206/3/3 202/3/3 205/3/3
f 206/3/3 205/3/3 204/3/3
f 207/1/3 203/1/3 202/1/3
f 207/3/3 202/3/3 206/3/3
f 208/1/3 198/1/3 203/1/3
f 208/1/3 203/1/3 207/1/3
f 209/1/3 198/1/3 208/1/3
f 210/3/3 206/3/3 204/3/3
f 211/3/3 206/3/3 210/3/3
f 212/1/3 207/1/3 206/1/3
f 212/3/3 206/3/3 211/3/3
f 212/1/3 208/1/3 207/1/3
f 213/1/3 208/1/3 212/1/3
f 214/1/3 208/1/3 213/1/3
f 215/1/3 212/1/3 211/1/3
f 215/1/3 213/1/3 212/1/3
f 216/1/3 213/1/3 215/1/3
f 217/1/3 213/1/3 216/1/3
f 218/1/3 213/1/3 217/1/3
f 219/1/3 217/1/3 216/1/3
f 220/1/3 217/1/3 219/1/3
f 223/1/3 222/1/3 221/1/3
f 224/1/3 222/1/3 223/1/3
f 228/1/3 226/1/3 225/1/3
f 229/1/3 226/1/3 228/1/3
f 231/1/3 228/1/3 227/1/3
f 232/1/3 231/1/3 230/1/3
f 233/1/3 231/1/3 232/1/3
f 234/1/3 231/1/3 233/1/3
f 235/1/3 231/1/3 234/1/3
f 236/1/3 228/1/3 231/1/3
f 236/1/3 231/1/3 235/1/3
f 239/1/3 238/1/3 237/1/3
f 240/1/3 238/1/3 239/1/3
f 243/1/3 242/1/3 241/1/3
f 244/1/3 242/1/3 243/1/3
f 247/3/3 246/3/3 245/3/3
f 248/3/3 246/3/3 247/3/3
f 249/3/3 246/3/3 248/3/3
f 252/1/3 251/1/3 250/1/3
f 253/1/3 251/1/3 252/1/3
f 256/3/3 255/3/3 254/3/3
f 257/3/3 255/3/3 256/3/3
f 258/3/3 255/3/3 257/3/3
f 259/3/3 257/3/3 256/3/3
f 260/3/3 257/3/3 259/3/3
f 263/2/3 262/2/3 261/2/3
f 265/2/3 264/2/3 263/2/3
f 267/2/3 266/2/3 265/2/3
f 269/2/3 267/2/3 265/2/3
f 269/2/3 268/2/3 267/2/3
f 270/2/3 268/2/3 269/2/3
f 271/2/3 265/2/3 263/2/3
f 271/2/3 269/2/3 265/2/3
f 272/2/3 269/2/3 271/2/3
f 273/2/3 263/2/3 261/2/3
f 273/2/3 271/2/3 263/2/3
f 274/2/3 271/2/3 273/2/3
f 275/2/3 273/2/3 261/2/3
f 276/2/3 273/2/3 275/2/3
f 277/1/4 278/1/4 279/1/4
f 279/1/4 278/1/4 280/1/4
f 281/2/4 282/2/4 284/2/4
f 284/2/4 282/2/4 285/2/4
f 283/2/4 284/2/4 288/2/4
f 285/2/4 286/2/4 288/2/4
f 284/2/4 285/2/4 288/2/4
f 288/2/4 286/2/4 289/2/4
f 287/2/4 288/2/4 292/2/4
f 289/2/4 290/2/4 292/2/4
f 288/2/4 289/2/4 292/2/4
f 292/2/4 290/2/4 293/2/4
f 291/2/4 292/2/4 296/2/4
f 293/2/4 294/2/4 296/2/4
f 292/2/4 293/2/4 296/2/4
f 296/2/4 294/2/4 297/2/4
f 295/2/4 296/2/4 300/2/4
f 297/2/4 298/2/4 300/2/4
f 296/2/4 297/2/4 300/2/4
f 300/2/4 298/2/4 301/2/4
f 299/2/4 300/2/4 303/2/4
f 301/2/4 302/2/4 303/2/4
f 300/2/4 301/2/4 303/2/4
f 303/2/4 302/2/4 304/2/4
f 304/2/4 302/2/4 305/2/4
f 305/2/4 302/2/4 306/2/4
f 304/2/4 305/2/4 307/2/4
f 307/2/4 305/2/4 308/2/4
f 308/2/4 305/2/4 309/2/4
f 309/2/4 305/2/4 310/2/4
f 308/2/4 309/2/4 311/2/4
f 311/2/4 309/2/4 312/2/4
f 312/2/4 309/2/4 313/2/4
f 313/2/4 309/2/4 314/2/4
f 312/2/4 313/2/4 315/2/4
f 315/2/4 313/2/4 316/2/4
f 316/2/4 313/2/4 317/2/4
f 317/2/4 313/2/4 318/2/4
f 316/2/4 317/2/4 319/2/4
f 319/2/4 317/2/4 320/2/4
f 320/2/4 317/2/4 321/2/4
f 321/2/4 317/2/4 322/2/4
f 320/2/4 321/2/4 323/2/4
f 323/2/4 321/2/4 324/2/4
f 327/3/5 326/3/5 325/3/5
f 328/3/5 326/3/5 327/3/5
f 329/2/5 328/2/5 327/2/5
f 330/2/5 328/2/5 329/2/5
f 335/1/5 334/1/5 333/1/5
f 336/1/5 334/1/5 335/1/5
f 337/3/5 332/3/5 331/3/5
f 338/3/5 332/3/5 337/3/5
f 339/3/5 336/3/5 335/3/5
f 340/3/5 336/3/5 339/3/5
f 341/2/5 338/2/5 337/2/5
f 342/2/5 338/2/5 341/2/5
f 343/2/5 340/2/5 339/2/5
f 344/2/5 340/2/5 343/2/5
f 349/1/5 348/1/5 347/1/5
f 350/1/5 348/1/5 349/1/5
f 351/3/5 350/3/5 349/3/5
f 351/1/5 348/1/5 350/1/5
f 352/1/5 348/1/5 351/1/5
f 353/3/5 346/3/5 345/3/5
f 354/3/5 346/3/5 353/3/5
f 355/3/5 351/3/5 349/3/5
f 355/3/5 352/3/5 351/3/5
f 356/3/5 352/3/5 355/3/5
f 357/2/5 354/2/5 353/2/5
f 358/2/5 354/2/5 357/2/5
f 359/2/5 356/2/5 355/2/5
f 360/2/5 356/2/5 359/2/5
f 365/1/5 364/1/5 363/1/5
f 366/1/5 364/1/5 365/1/5
f 367/1/5 364/1/5 366/1/5
f 368/3/5 362/3/5 361/3/5
f 369/3/5 362/3/5 368/3/5
f 370/3/5 367/3/5 366/3/5
f 371/3/5 367/3/5 370/3/5
f 372/2/5 369/2/5 368/2/5
f 373/2/5 369/2/5 372/2/5
f 374/2/5 371/2/5 370/2/5
f 375/2/5 371/2/5 374/2/5
f 380/1/5 379/1/5 378/1/5
f 381/1/5 379/1/5 380/1/5
f 382/3/5 377/3/5 376/3/5
f 383/3/5 377/3/5 382/3/5
f 384/3/5 381/3/5 380/3/5
f 385/3/5 381/3/5 384/3/5
f 386/2/5 383/2/5 382/2/5
f 387/2/5 383/2/5 386/2/5
f 388/2/5 385/2/5 384/2/5
f 389/2/5 385/2/5 388/2/5
f 394/1/5 393/1/5 392/1/5
f 395/1/5 393/1/5 394/1/5
f 396/1/5 393/1/5 395/1/5
f 397/3/5 391/3/5 390/3/5
f 398/3/5 391/3/5 397/3/5
f 399/3/5 396/3/5 395/3/5
f 400/3/5 396/3/5 399/3/5
f 401/2/5 398/2/5 397/2/5
f 402/2/5 398/2/5 401/2/5
f 403/2/5 400/2/5 399/2/5
f 404/2/5 400/2/5 403/2/5
f 405/1/6 406/1/6 407/1/6
f 407/1/6 406/1/6 408/1/6
f 409/1/6 410/1/6 411/1/6
f 411/1/6 410/1/6 412/1/6
f 413/1/6 414/1/6 415/1/6
f 415/1/6 414/1/6 416/1/6
f 416/1/6 417/1/6 418/1/6
f 418/1/6 417/1/6 419/1/6
f 419/1/6 417/1/6 420/1/6
f 420/1/6 421/1/6 422/1/6
f 419/1/6 420/1/6 422/1/6
f 422/1/6 421/1/6 423/1/6
f 424/3/6 425/3/6 428/3/6
f 426/1/6 427/1/6 429/1/6
f 429/1/6 427/1/6 430/1/6
f 430/1/6 427/1/6 431/1/6
f 431/1/6 432/1/6 433/1/6
f 430/1/6 431/1/6 433/1/6
f 433/1/6 432/1/6 434/1/6
f 434/1/6 432/1/6 435/1/6
f 433/3/6 434/3/6 437/3/6
f 435/1/6 436/1/6 438/1/6
f 437/3/6 434/3/6 438/3/6
f 434/1/6 435/1/6 438/1/6
f 438/1/6 436/1/6 439/1/6
f 439/1/6 436/1/6 440/1/6
f 439/3/6 440/3/6 442/3/6
f 440/1/6 441/1/6 443/1/6
f 442/3/6 440/3/6 443/3/6
f 443/1/6 441/1/6 444/1/6
f 444/1/6 441/1/6 445/1/6
f 445/1/6 441/1/6 446/1/6
f 424/3/6 428/3/6 447/3/6
f 447/3/6 428/3/6 448/3/6
f 445/3/6 446/3/6 449/3/6
f 449/3/6 446/3/6 450/3/6
f 447/2/6 448/2/6 451/2/6
f 451/2/6 448/2/6 452/2/6
f 449/2/6 450/2/6 453/2/6
f 453/2/6 450/2/6 454/2/6
f 455/1/6 456/1/6 457/1/6
f 457/1/6 456/1/6 458/1/6
f 457/3/6 458/3/6 461/3/6
f 461/3/6 458/3/6 462/3/6
f 459/3/6 460/3/6 463/3/6
f 463/3/6 460/3/6 464/3/6
f 461/2/6 462/2/6 465/2/6
f 465/2/6 462/2/6 466/2/6
f 463/2/6 464/2/6 467/2/6
f 467/2/6 464/2/6 468/2/6
f 469/1/6 470/1/6 472/1/6
f 472/1/6 470/1/6 473/1/6
f 471/3/6 472/3/6 474/3/6
f 472/3/6 473/3/6 474/3/6
f 474/3/6 475/3/6 476/3/6
f 471/3/6 474/3/6 478/3/6
f 476/3/6 477/3/6 478/3/6
f 474/3/6 476/3/6 478/3/6
f 478/3/6 477/3/6 479/3/6
f 480/1/6 481/1/6 482/1/6
f 482/1/6 481/1/6 483/1/6
f 484/2/6 485/2/6 488/2/6
f 488/2/6 485/2/6 489/2/6
f 486/2/6 487/2/6 490/2/6
f 490/2/6 487/2/6 491/2/6
f 492/2/6 493/2/6 496/2/6
f 496/2/6 493/2/6 497/2/6
f 494/2/6 495/2/6 498/2/6
f 498/2/6 495/2/6 499/2/6
f 500/2/6 501/2/6 504/2/6
f 504/2/6 501/2/6 505/2/6
f 502/2/6 503/2/6 506/2/6
f 506/2/6 503/2/6 507/2/6
f 508/2/6 509/2/6 510/2/6
f 510/2/6 509/2/6 511/2/6
