# MagicaVoxel @ Ephtracy

# group
o

# material
mtllib Mine4-3.mtl
usemtl palette

# normals
vn -1.0 0.0 0.0
vn 1.0 0.0 0.0
vn 0.0 0.0 1.0
vn 0.0 0.0 -1.0
vn 0.0 -1.0 0.0
vn 0.0 1.0 0.0

# texcoords
vt 0.705078 0.5
vt 0.970703 0.5

# verts
v -1.0 -3.9 0.3
v -1.0 -3.9 -0.3
v -1.0 -3.8 0.3
v -1.0 -3.8 -0.3
v -0.9 -3.9 0.5
v -0.9 -3.9 0.3
v -0.9 -3.9 -0.3
v -0.9 -3.9 -0.5
v -0.9 -3.8 0.5
v -0.9 -3.8 0.3
v -0.9 -3.8 -0.3
v -0.9 -3.8 -0.5
v -0.9 -1.7 -0.3
v -0.9 -1.7 -0.5
v -0.8 -3.9 0.7
v -0.8 -3.9 0.5
v -0.8 -3.9 -0.5
v -0.8 -3.9 -0.7
v -0.8 -3.8 0.7
v -0.8 -3.8 0.5
v -0.8 -3.8 -0.5
v -0.8 -3.8 -0.7
v -0.8 -1.7 -0.5
v -0.8 -1.7 -0.7
v -0.7 -3.9 0.8
v -0.7 -3.9 0.7
v -0.7 -3.9 -0.7
v -0.7 -3.9 -0.8
v -0.7 -3.8 0.8
v -0.7 -3.8 0.7
v -0.7 -3.8 -0.7
v -0.7 -3.8 -0.8
v -0.7 -1.7 -0.7
v -0.7 -1.7 -0.8
v -0.5 -3.9 0.9
v -0.5 -3.9 0.8
v -0.5 -3.9 -0.8
v -0.5 -3.9 -0.9
v -0.5 -3.8 0.9
v -0.5 -3.8 0.8
v -0.5 -3.8 -0.8
v -0.5 -3.8 -0.9
v -0.5 -1.7 -0.8
v -0.5 -1.7 -0.9
v -0.3 -3.9 1.0
v -0.3 -3.9 0.9
v -0.3 -3.9 -0.9
v -0.3 -3.9 -1.0
v -0.3 -3.8 1.0
v -0.3 -3.8 0.9
v -0.3 -3.8 -0.9
v -0.3 -3.8 -1.0
v -0.3 -1.7 -0.9
v -0.3 -1.7 -1.0
v -0.7 -2.0 -0.3
v -0.7 -2.0 -0.6
v -0.7 -1.7 -0.3
v -0.7 -1.7 -0.6
v -0.4 -3.0 -0.3
v -0.4 -3.0 -0.6
v -0.4 -2.0 -0.3
v -0.4 -2.0 -0.6
v -0.0999999 -3.8 -0.3
v -0.0999999 -3.8 -0.6
v -0.0999999 -3.0 -0.3
v -0.0999999 -3.0 -0.6
v 0.3 -3.9 1.0
v 0.3 -3.9 0.9
v 0.3 -3.9 -0.9
v 0.3 -3.9 -1.0
v 0.3 -3.8 1.0
v 0.3 -3.8 0.9
v 0.3 -3.8 -0.6
v 0.3 -3.8 -0.9
v 0.3 -3.8 -1.0
v 0.3 -1.7 -0.6
v 0.3 -1.7 -1.0
v 0.5 -3.9 0.9
v 0.5 -3.9 0.8
v 0.5 -3.9 -0.8
v 0.5 -3.9 -0.9
v 0.5 -3.8 0.9
v 0.5 -3.8 0.8
v 0.5 -3.8 -0.8
v 0.5 -3.8 -0.9
v 0.7 -3.9 0.8
v 0.7 -3.9 0.7
v 0.7 -3.9 -0.7
v 0.7 -3.9 -0.8
v 0.7 -3.8 0.8
v 0.7 -3.8 0.7
v 0.7 -3.8 -0.7
v 0.7 -3.8 -0.8
v 0.8 -3.9 0.7
v 0.8 -3.9 0.5
v 0.8 -3.9 -0.5
v 0.8 -3.9 -0.7
v 0.8 -3.8 0.7
v 0.8 -3.8 0.5
v 0.8 -3.8 -0.5
v 0.8 -3.8 -0.7
v 0.9 -3.9 0.5
v 0.9 -3.9 0.3
v 0.9 -3.9 -0.3
v 0.9 -3.9 -0.5
v 0.9 -3.8 0.5
v 0.9 -3.8 0.3
v 0.9 -3.8 -0.3
v 0.9 -3.8 -0.5
v 1.0 -3.9 0.3
v 1.0 -3.9 -0.3
v 1.0 -3.8 0.3
v 1.0 -3.8 -0.3
v -0.3 -3.9 1.0
v -0.3 -3.8 1.0
v 0.3 -3.9 1.0
v 0.3 -3.8 1.0
v -0.5 -3.9 0.9
v -0.5 -3.8 0.9
v -0.3 -3.9 0.9
v -0.3 -3.8 0.9
v 0.3 -3.9 0.9
v 0.3 -3.8 0.9
v 0.5 -3.9 0.9
v 0.5 -3.8 0.9
v -0.7 -3.9 0.8
v -0.7 -3.8 0.8
v -0.5 -3.9 0.8
v -0.5 -3.8 0.8
v 0.5 -3.9 0.8
v 0.5 -3.8 0.8
v 0.7 -3.9 0.8
v 0.7 -3.8 0.8
v -0.8 -3.9 0.7
v -0.8 -3.8 0.7
v -0.7 -3.9 0.7
v -0.7 -3.8 0.7
v 0.7 -3.9 0.7
v 0.7 -3.8 0.7
v 0.8 -3.9 0.7
v 0.8 -3.8 0.7
v -0.9 -3.9 0.5
v -0.9 -3.8 0.5
v -0.8 -3.9 0.5
v -0.8 -3.8 0.5
v 0.8 -3.9 0.5
v 0.8 -3.8 0.5
v 0.9 -3.9 0.5
v 0.9 -3.8 0.5
v -1.0 -3.9 0.3
v -1.0 -3.8 0.3
v -0.9 -3.9 0.3
v -0.9 -3.8 0.3
v 0.9 -3.9 0.3
v 0.9 -3.8 0.3
v 1.0 -3.9 0.3
v 1.0 -3.8 0.3
v -0.9 -3.8 -0.3
v -0.9 -1.7 -0.3
v -0.7 -2.0 -0.3
v -0.7 -1.7 -0.3
v -0.4 -3.0 -0.3
v -0.4 -2.0 -0.3
v -0.0999999 -3.8 -0.3
v -0.0999999 -3.0 -0.3
v -0.7 -2.0 -0.6
v -0.7 -1.7 -0.6
v -0.4 -3.0 -0.6
v -0.4 -2.0 -0.6
v -0.0999999 -3.8 -0.6
v -0.0999999 -3.0 -0.6
v 0.3 -3.8 -0.6
v 0.3 -1.7 -0.6
v -1.0 -3.9 -0.3
v -1.0 -3.8 -0.3
v -0.9 -3.9 -0.3
v -0.9 -3.8 -0.3
v 0.9 -3.9 -0.3
v 0.9 -3.8 -0.3
v 1.0 -3.9 -0.3
v 1.0 -3.8 -0.3
v -0.9 -3.9 -0.5
v -0.9 -3.8 -0.5
v -0.9 -1.7 -0.5
v -0.8 -3.9 -0.5
v -0.8 -3.8 -0.5
v -0.8 -1.7 -0.5
v 0.8 -3.9 -0.5
v 0.8 -3.8 -0.5
v 0.9 -3.9 -0.5
v 0.9 -3.8 -0.5
v -0.8 -3.9 -0.7
v -0.8 -3.8 -0.7
v -0.8 -1.7 -0.7
v -0.7 -3.9 -0.7
v -0.7 -3.8 -0.7
v -0.7 -1.7 -0.7
v 0.7 -3.9 -0.7
v 0.7 -3.8 -0.7
v 0.8 -3.9 -0.7
v 0.8 -3.8 -0.7
v -0.7 -3.9 -0.8
v -0.7 -3.8 -0.8
v -0.7 -1.7 -0.8
v -0.5 -3.9 -0.8
v -0.5 -3.8 -0.8
v -0.5 -1.7 -0.8
v 0.5 -3.9 -0.8
v 0.5 -3.8 -0.8
v 0.7 -3.9 -0.8
v 0.7 -3.8 -0.8
v -0.5 -3.9 -0.9
v -0.5 -3.8 -0.9
v -0.5 -1.7 -0.9
v -0.3 -3.9 -0.9
v -0.3 -3.8 -0.9
v -0.3 -1.7 -0.9
v 0.3 -3.9 -0.9
v 0.3 -3.8 -0.9
v 0.5 -3.9 -0.9
v 0.5 -3.8 -0.9
v -0.3 -3.9 -1.0
v -0.3 -3.8 -1.0
v -0.3 -1.7 -1.0
v 0.3 -3.9 -1.0
v 0.3 -3.8 -1.0
v 0.3 -1.7 -1.0
v -0.3 -3.9 1.0
v 0.3 -3.9 1.0
v -0.5 -3.9 0.9
v -0.3 -3.9 0.9
v 0.3 -3.9 0.9
v 0.5 -3.9 0.9
v -0.7 -3.9 0.8
v -0.5 -3.9 0.8
v 0.5 -3.9 0.8
v 0.7 -3.9 0.8
v -0.8 -3.9 0.7
v -0.7 -3.9 0.7
v 0.7 -3.9 0.7
v 0.8 -3.9 0.7
v -0.9 -3.9 0.5
v -0.8 -3.9 0.5
v 0.8 -3.9 0.5
v 0.9 -3.9 0.5
v -1.0 -3.9 0.3
v -0.9 -3.9 0.3
v 0.9 -3.9 0.3
v 1.0 -3.9 0.3
v -1.0 -3.9 -0.3
v -0.9 -3.9 -0.3
v 0.9 -3.9 -0.3
v 1.0 -3.9 -0.3
v -0.9 -3.9 -0.5
v -0.8 -3.9 -0.5
v 0.8 -3.9 -0.5
v 0.9 -3.9 -0.5
v -0.8 -3.9 -0.7
v -0.7 -3.9 -0.7
v 0.7 -3.9 -0.7
v 0.8 -3.9 -0.7
v -0.7 -3.9 -0.8
v -0.5 -3.9 -0.8
v 0.5 -3.9 -0.8
v 0.7 -3.9 -0.8
v -0.5 -3.9 -0.9
v -0.3 -3.9 -0.9
v 0.3 -3.9 -0.9
v 0.5 -3.9 -0.9
v -0.3 -3.9 -1.0
v 0.3 -3.9 -1.0
v -0.3 -3.8 1.0
v 0.3 -3.8 1.0
v -0.5 -3.8 0.9
v -0.3 -3.8 0.9
v 0.3 -3.8 0.9
v 0.5 -3.8 0.9
v -0.7 -3.8 0.8
v -0.5 -3.8 0.8
v 0.5 -3.8 0.8
v 0.7 -3.8 0.8
v -0.8 -3.8 0.7
v -0.7 -3.8 0.7
v 0.7 -3.8 0.7
v 0.8 -3.8 0.7
v -0.9 -3.8 0.5
v -0.8 -3.8 0.5
v 0.8 -3.8 0.5
v 0.9 -3.8 0.5
v -1.0 -3.8 0.3
v -0.9 -3.8 0.3
v 0.9 -3.8 0.3
v 1.0 -3.8 0.3
v -1.0 -3.8 -0.3
v -0.9 -3.8 -0.3
v -0.0999999 -3.8 -0.3
v 0.9 -3.8 -0.3
v 1.0 -3.8 -0.3
v 0.8 -3.8 -0.5
v 0.9 -3.8 -0.5
v -0.0999999 -3.8 -0.6
v 0.3 -3.8 -0.6
v 0.7 -3.8 -0.7
v 0.8 -3.8 -0.7
v 0.5 -3.8 -0.8
v 0.7 -3.8 -0.8
v 0.3 -3.8 -0.9
v 0.5 -3.8 -0.9
v -0.4 -3.0 -0.3
v -0.0999999 -3.0 -0.3
v -0.4 -3.0 -0.6
v -0.0999999 -3.0 -0.6
v -0.7 -2.0 -0.3
v -0.4 -2.0 -0.3
v -0.7 -2.0 -0.6
v -0.4 -2.0 -0.6
v -0.9 -1.7 -0.3
v -0.7 -1.7 -0.3
v -0.9 -1.7 -0.5
v -0.8 -1.7 -0.5
v -0.7 -1.7 -0.6
v 0.3 -1.7 -0.6
v -0.8 -1.7 -0.7
v -0.7 -1.7 -0.7
v -0.7 -1.7 -0.8
v -0.5 -1.7 -0.8
v -0.5 -1.7 -0.9
v -0.3 -1.7 -0.9
v -0.3 -1.7 -1.0
v 0.3 -1.7 -1.0

# faces
f 3/1/1 2/1/1 1/1/1
f 4/1/1 2/1/1 3/1/1
f 9/1/1 6/1/1 5/1/1
f 10/1/1 6/1/1 9/1/1
f 11/1/1 8/1/1 7/1/1
f 12/1/1 8/1/1 11/1/1
f 13/2/1 12/2/1 11/2/1
f 14/2/1 12/2/1 13/2/1
f 19/1/1 16/1/1 15/1/1
f 20/1/1 16/1/1 19/1/1
f 21/1/1 18/1/1 17/1/1
f 22/1/1 18/1/1 21/1/1
f 23/2/1 22/2/1 21/2/1
f 24/2/1 22/2/1 23/2/1
f 29/1/1 26/1/1 25/1/1
f 30/1/1 26/1/1 29/1/1
f 31/1/1 28/1/1 27/1/1
f 32/1/1 28/1/1 31/1/1
f 33/2/1 32/2/1 31/2/1
f 34/2/1 32/2/1 33/2/1
f 39/1/1 36/1/1 35/1/1
f 40/1/1 36/1/1 39/1/1
f 41/1/1 38/1/1 37/1/1
f 42/1/1 38/1/1 41/1/1
f 43/2/1 42/2/1 41/2/1
f 44/2/1 42/2/1 43/2/1
f 49/1/1 46/1/1 45/1/1
f 50/1/1 46/1/1 49/1/1
f 51/1/1 48/1/1 47/1/1
f 52/1/1 48/1/1 51/1/1
f 53/2/1 52/2/1 51/2/1
f 54/2/1 52/2/1 53/2/1
f 55/2/2 56/2/2 57/2/2
f 57/2/2 56/2/2 58/2/2
f 59/2/2 60/2/2 61/2/2
f 61/2/2 60/2/2 62/2/2
f 63/2/2 64/2/2 65/2/2
f 65/2/2 64/2/2 66/2/2
f 67/1/2 68/1/2 71/1/2
f 71/1/2 68/1/2 72/1/2
f 69/1/2 70/1/2 74/1/2
f 74/1/2 70/1/2 75/1/2
f 73/2/2 74/2/2 76/2/2
f 74/2/2 75/2/2 76/2/2
f 76/2/2 75/2/2 77/2/2
f 78/1/2 79/1/2 82/1/2
f 82/1/2 79/1/2 83/1/2
f 80/1/2 81/1/2 84/1/2
f 84/1/2 81/1/2 85/1/2
f 86/1/2 87/1/2 90/1/2
f 90/1/2 87/1/2 91/1/2
f 88/1/2 89/1/2 92/1/2
f 92/1/2 89/1/2 93/1/2
f 94/1/2 95/1/2 98/1/2
f 98/1/2 95/1/2 99/1/2
f 96/1/2 97/1/2 100/1/2
f 100/1/2 97/1/2 101/1/2
f 102/1/2 103/1/2 106/1/2
f 106/1/2 103/1/2 107/1/2
f 104/1/2 105/1/2 108/1/2
f 108/1/2 105/1/2 109/1/2
f 110/1/2 111/1/2 112/1/2
f 112/1/2 111/1/2 113/1/2
f 116/1/3 115/1/3 114/1/3
f 117/1/3 115/1/3 116/1/3
f 120/1/3 119/1/3 118/1/3
f 121/1/3 119/1/3 120/1/3
f 124/1/3 123/1/3 122/1/3
f 125/1/3 123/1/3 124/1/3
f 128/1/3 127/1/3 126/1/3
f 129/1/3 127/1/3 128/1/3
f 132/1/3 131/1/3 130/1/3
f 133/1/3 131/1/3 132/1/3
f 136/1/3 135/1/3 134/1/3
f 137/1/3 135/1/3 136/1/3
f 140/1/3 139/1/3 138/1/3
f 141/1/3 139/1/3 140/1/3
f 144/1/3 143/1/3 142/1/3
f 145/1/3 143/1/3 144/1/3
f 148/1/3 147/1/3 146/1/3
f 149/1/3 147/1/3 148/1/3
f 152/1/3 151/1/3 150/1/3
f 153/1/3 151/1/3 152/1/3
f 156/1/3 155/1/3 154/1/3
f 157/1/3 155/1/3 156/1/3
f 160/2/3 159/2/3 158/2/3
f 161/2/3 159/2/3 160/2/3
f 162/2/3 160/2/3 158/2/3
f 163/2/3 160/2/3 162/2/3
f 164/2/3 162/2/3 158/2/3
f 165/2/3 162/2/3 164/2/3
f 169/2/3 167/2/3 166/2/3
f 171/2/3 169/2/3 168/2/3
f 172/2/3 171/2/3 170/2/3
f 173/2/3 167/2/3 169/2/3
f 173/2/3 171/2/3 172/2/3
f 173/2/3 169/2/3 171/2/3
f 174/1/4 175/1/4 176/1/4
f 176/1/4 175/1/4 177/1/4
f 178/1/4 179/1/4 180/1/4
f 180/1/4 179/1/4 181/1/4
f 182/1/4 183/1/4 185/1/4
f 183/2/4 184/2/4 186/2/4
f 185/1/4 183/1/4 186/1/4
f 186/2/4 184/2/4 187/2/4
f 188/1/4 189/1/4 190/1/4
f 190/1/4 189/1/4 191/1/4
f 192/1/4 193/1/4 195/1/4
f 193/2/4 194/2/4 196/2/4
f 195/1/4 193/1/4 196/1/4
f 196/2/4 194/2/4 197/2/4
f 198/1/4 199/1/4 200/1/4
f 200/1/4 199/1/4 201/1/4
f 202/1/4 203/1/4 205/1/4
f 203/2/4 204/2/4 206/2/4
f 205/1/4 203/1/4 206/1/4
f 206/2/4 204/2/4 207/2/4
f 208/1/4 209/1/4 210/1/4
f 210/1/4 209/1/4 211/1/4
f 212/1/4 213/1/4 215/1/4
f 213/2/4 214/2/4 216/2/4
f 215/1/4 213/1/4 216/1/4
f 216/2/4 214/2/4 217/2/4
f 218/1/4 219/1/4 220/1/4
f 220/1/4 219/1/4 221/1/4
f 222/1/4 223/1/4 225/1/4
f 223/2/4 224/2/4 226/2/4
f 225/1/4 223/1/4 226/1/4
f 226/2/4 224/2/4 227/2/4
f 272/1/6 273/1/6 275/1/6
f 275/1/6 273/1/6 276/1/6
f 274/1/6 275/1/6 279/1/6
f 276/1/6 277/1/6 279/1/6
f 275/1/6 276/1/6 279/1/6
f 279/1/6 277/1/6 280/1/6
f 278/1/6 279/1/6 283/1/6
f 280/1/6 281/1/6 283/1/6
f 279/1/6 280/1/6 283/1/6
f 283/1/6 281/1/6 284/1/6
f 282/1/6 283/1/6 287/1/6
f 284/1/6 285/1/6 287/1/6
f 283/1/6 284/1/6 287/1/6
f 287/1/6 285/1/6 288/1/6
f 286/1/6 287/1/6 291/1/6
f 288/1/6 289/1/6 291/1/6
f 287/1/6 288/1/6 291/1/6
f 291/1/6 289/1/6 292/1/6
f 290/1/6 291/1/6 294/1/6
f 292/1/6 293/1/6 294/1/6
f 291/1/6 292/1/6 294/1/6
f 294/1/6 293/1/6 295/1/6
f 295/1/6 293/1/6 296/1/6
f 296/1/6 293/1/6 297/1/6
f 297/1/6 293/1/6 298/1/6
f 296/1/6 297/1/6 299/1/6
f 299/1/6 297/1/6 300/1/6
f 296/1/6 299/1/6 301/1/6
f 301/1/6 299/1/6 302/1/6
f 302/1/6 299/1/6 303/1/6
f 303/1/6 299/1/6 304/1/6
f 302/1/6 303/1/6 305/1/6
f 305/1/6 303/1/6 306/1/6
f 302/1/6 305/1/6 307/1/6
f 307/1/6 305/1/6 308/1/6
f 309/2/6 310/2/6 311/2/6
f 311/2/6 310/2/6 312/2/6
f 313/2/6 314/2/6 315/2/6
f 315/2/6 314/2/6 316/2/6
f 317/2/6 318/2/6 319/2/6
f 319/2/6 318/2/6 320/2/6
f 320/2/6 318/2/6 321/2/6
f 320/2/6 321/2/6 323/2/6
f 321/2/6 322/2/6 323/2/6
f 323/2/6 322/2/6 324/2/6
f 324/2/6 322/2/6 325/2/6
f 325/2/6 322/2/6 326/2/6
f 326/2/6 322/2/6 327/2/6
f 327/2/6 322/2/6 328/2/6
f 328/2/6 322/2/6 329/2/6
f 329/2/6 322/2/6 330/2/6