# MagicaVoxel @ Ephtracy

# group
o

# material
mtllib Mine4-6.mtl
usemtl palette

# normals
vn -1.0 0.0 0.0
vn 1.0 0.0 0.0
vn 0.0 0.0 1.0
vn 0.0 0.0 -1.0
vn 0.0 -1.0 0.0
vn 0.0 1.0 0.0

# texcoords
vt 0.0878906 0.5
vt 0.705078 0.5
vt 0.970703 0.5

# verts
v -3.9 -1.0 0.3
v -3.9 -1.0 -0.3
v -3.9 -0.9 0.5
v -3.9 -0.9 0.3
v -3.9 -0.9 -0.3
v -3.9 -0.9 -0.5
v -3.9 -0.8 0.7
v -3.9 -0.8 0.5
v -3.9 -0.8 -0.5
v -3.9 -0.8 -0.7
v -3.9 -0.7 0.8
v -3.9 -0.7 0.7
v -3.9 -0.7 -0.7
v -3.9 -0.7 -0.8
v -3.9 -0.5 0.9
v -3.9 -0.5 0.8
v -3.9 -0.5 -0.8
v -3.9 -0.5 -0.9
v -3.9 -0.3 1.0
v -3.9 -0.3 0.9
v -3.9 -0.3 -0.9
v -3.9 -0.3 -1.0
v -3.9 0.3 1.0
v -3.9 0.3 0.9
v -3.9 0.3 -0.9
v -3.9 0.3 -1.0
v -3.9 0.5 0.9
v -3.9 0.5 0.8
v -3.9 0.5 -0.8
v -3.9 0.5 -0.9
v -3.9 0.7 0.8
v -3.9 0.7 0.7
v -3.9 0.7 -0.7
v -3.9 0.7 -0.8
v -3.9 0.8 0.7
v -3.9 0.8 0.5
v -3.9 0.8 -0.5
v -3.9 0.8 -0.7
v -3.9 0.9 0.5
v -3.9 0.9 0.3
v -3.9 0.9 -0.3
v -3.9 0.9 -0.5
v -3.9 1.0 0.3
v -3.9 1.0 -0.3
v -1.7 -1.0 0.3
v -1.7 -1.0 -0.3
v -1.7 -0.9 0.5
v -1.7 -0.9 0.3
v -1.7 -0.9 -0.3
v -1.7 -0.9 -0.5
v -1.7 -0.8 0.7
v -1.7 -0.8 0.5
v -1.7 -0.8 -0.5
v -1.7 -0.8 -0.7
v -1.7 -0.7 0.8
v -1.7 -0.7 0.7
v -1.7 -0.7 0.4
v -1.7 -0.7 -0.7
v -1.7 -0.7 -0.8
v -1.7 -0.5 0.9
v -1.7 -0.5 0.8
v -1.7 -0.5 -0.8
v -1.7 -0.5 -0.9
v -1.7 -0.4 0.4
v -1.7 -0.4 -0.3
v -1.7 -0.3 1.0
v -1.7 -0.3 0.9
v -1.7 -0.3 -0.9
v -1.7 -0.3 -1.0
v -1.7 -0.0999999 -0.3
v -1.7 -0.0999999 -0.9
v -1.7 0.3 1.0
v -1.7 0.3 0.9
v -1.7 0.3 0.0999999
v -1.7 0.3 -0.9
v -1.7 0.3 -1.0
v -1.7 0.5 0.9
v -1.7 0.5 0.8
v -1.7 0.5 -0.8
v -1.7 0.5 -0.9
v -1.7 0.6 0.0999999
v -1.7 0.6 -0.6
v -1.7 0.7 0.8
v -1.7 0.7 0.7
v -1.7 0.7 -0.7
v -1.7 0.7 -0.8
v -1.7 0.8 0.7
v -1.7 0.8 0.5
v -1.7 0.8 -0.5
v -1.7 0.8 -0.6
v -1.7 0.8 -0.7
v -1.7 0.9 0.5
v -1.7 0.9 0.3
v -1.7 0.9 -0.3
v -1.7 0.9 -0.5
v -1.7 1.0 0.3
v -1.7 1.0 -0.3
v -3.9 -0.3 1.0
v -3.9 0.3 1.0
v -3.8 -0.3 1.0
v -3.8 0.3 1.0
v -2.6 -0.0999999 1.0
v -2.6 0.3 1.0
v -2.4 -0.3 1.0
v -2.4 -0.0999999 1.0
v -1.7 -0.3 1.0
v -1.7 0.3 1.0
v -3.9 -0.5 0.9
v -3.9 -0.3 0.9
v -3.9 0.3 0.9
v -3.9 0.5 0.9
v -3.8 -0.5 0.9
v -3.8 -0.3 0.9
v -3.8 0.3 0.9
v -3.8 0.5 0.9
v -3.3 0.3 0.9
v -3.3 0.5 0.9
v -2.6 0.3 0.9
v -2.4 -0.4 0.9
v -2.4 -0.3 0.9
v -2.0 -0.5 0.9
v -2.0 -0.4 0.9
v -2.0 0.3 0.9
v -2.0 0.5 0.9
v -1.7 -0.5 0.9
v -1.7 -0.3 0.9
v -1.7 0.3 0.9
v -1.7 0.5 0.9
v -3.9 -0.7 0.8
v -3.9 -0.5 0.8
v -3.9 0.5 0.8
v -3.9 0.7 0.8
v -3.8 -0.7 0.8
v -3.8 -0.5 0.8
v -3.8 0.5 0.8
v -3.8 0.6 0.8
v -3.8 0.7 0.8
v -3.3 0.5 0.8
v -3.3 0.6 0.8
v -2.4 0.6 0.8
v -2.4 0.7 0.8
v -2.0 -0.7 0.8
v -2.0 -0.5 0.8
v -2.0 0.5 0.8
v -2.0 0.6 0.8
v -1.7 -0.7 0.8
v -1.7 -0.5 0.8
v -1.7 0.5 0.8
v -1.7 0.7 0.8
v -3.9 -0.8 0.7
v -3.9 -0.7 0.7
v -3.9 0.7 0.7
v -3.9 0.8 0.7
v -3.8 -0.8 0.7
v -3.8 -0.7 0.7
v -3.8 0.7 0.7
v -3.8 0.8 0.7
v -2.4 0.7 0.7
v -2.4 0.8 0.7
v -2.0 -0.7 0.7
v -1.7 -0.8 0.7
v -1.7 -0.7 0.7
v -1.7 0.7 0.7
v -1.7 0.8 0.7
v -3.9 -0.9 0.5
v -3.9 -0.8 0.5
v -3.9 0.8 0.5
v -3.9 0.9 0.5
v -3.8 -0.9 0.5
v -3.8 -0.8 0.5
v -3.8 0.8 0.5
v -3.8 0.9 0.5
v -2.4 0.8 0.5
v -2.4 0.9 0.5
v -1.7 -0.9 0.5
v -1.7 -0.8 0.5
v -1.7 0.8 0.5
v -1.7 0.9 0.5
v -3.9 -1.0 0.3
v -3.9 -0.9 0.3
v -3.9 0.9 0.3
v -3.9 1.0 0.3
v -3.8 -1.0 0.3
v -3.8 -0.9 0.3
v -3.8 0.9 0.3
v -3.8 1.0 0.3
v -3.0 0.9 0.3
v -3.0 1.0 0.3
v -2.4 0.9 0.3
v -1.7 -1.0 0.3
v -1.7 -0.9 0.3
v -1.7 0.9 0.3
v -1.7 1.0 0.3
v -3.9 -1.0 -0.3
v -3.9 -0.9 -0.3
v -3.9 0.9 -0.3
v -3.9 1.0 -0.3
v -3.8 -1.0 -0.3
v -3.8 -0.9 -0.3
v -3.8 0.9 -0.3
v -3.8 1.0 -0.3
v -3.6 0.9 -0.3
v -2.6 0.9 -0.3
v -2.6 1.0 -0.3
v -2.0 0.9 -0.3
v -1.7 -1.0 -0.3
v -1.7 -0.9 -0.3
v -1.7 0.9 -0.3
v -1.7 1.0 -0.3
v -3.9 -0.9 -0.5
v -3.9 -0.8 -0.5
v -3.9 0.8 -0.5
v -3.9 0.9 -0.5
v -3.8 -0.9 -0.5
v -3.8 -0.8 -0.5
v -3.8 0.8 -0.5
v -3.8 0.9 -0.5
v -3.6 0.8 -0.5
v -3.6 0.9 -0.5
v -2.0 0.8 -0.5
v -2.0 0.9 -0.5
v -1.7 -0.9 -0.5
v -1.7 -0.8 -0.5
v -1.7 0.8 -0.5
v -1.7 0.9 -0.5
v -3.9 -0.8 -0.7
v -3.9 -0.7 -0.7
v -3.9 0.7 -0.7
v -3.9 0.8 -0.7
v -3.8 -0.8 -0.7
v -3.8 -0.7 -0.7
v -3.8 0.7 -0.7
v -3.8 0.8 -0.7
v -3.3 0.7 -0.7
v -3.3 0.8 -0.7
v -1.7 -0.8 -0.7
v -1.7 -0.7 -0.7
v -1.7 0.7 -0.7
v -1.7 0.8 -0.7
v -3.9 -0.7 -0.8
v -3.9 -0.5 -0.8
v -3.9 0.5 -0.8
v -3.9 0.7 -0.8
v -3.8 -0.7 -0.8
v -3.8 -0.5 -0.8
v -3.8 0.5 -0.8
v -3.8 0.7 -0.8
v -3.3 0.6 -0.8
v -3.3 0.7 -0.8
v -2.4 0.5 -0.8
v -2.4 0.6 -0.8
v -1.7 -0.7 -0.8
v -1.7 -0.5 -0.8
v -1.7 0.5 -0.8
v -1.7 0.7 -0.8
v -3.9 -0.5 -0.9
v -3.9 -0.3 -0.9
v -3.9 0.3 -0.9
v -3.9 0.5 -0.9
v -3.8 -0.5 -0.9
v -3.8 -0.3 -0.9
v -3.8 0.3 -0.9
v -3.8 0.5 -0.9
v -2.4 0.3 -0.9
v -2.4 0.5 -0.9
v -1.7 -0.5 -0.9
v -1.7 -0.3 -0.9
v -1.7 0.3 -0.9
v -1.7 0.5 -0.9
v -3.9 -0.3 -1.0
v -3.9 0.3 -1.0
v -3.8 -0.3 -1.0
v -3.8 0.3 -1.0
v -1.7 -0.3 -1.0
v -1.7 0.3 -1.0
v -3.9 -1.0 0.3
v -3.8 -1.0 0.3
v -1.7 -1.0 0.3
v -3.9 -1.0 -0.3
v -3.8 -1.0 -0.3
v -1.7 -1.0 -0.3
v -3.9 -0.9 0.5
v -3.8 -0.9 0.5
v -1.7 -0.9 0.5
v -3.9 -0.9 0.3
v -3.8 -0.9 0.3
v -1.7 -0.9 0.3
v -3.9 -0.9 -0.3
v -3.8 -0.9 -0.3
v -1.7 -0.9 -0.3
v -3.9 -0.9 -0.5
v -3.8 -0.9 -0.5
v -1.7 -0.9 -0.5
v -3.9 -0.8 0.7
v -3.8 -0.8 0.7
v -1.7 -0.8 0.7
v -3.9 -0.8 0.5
v -3.8 -0.8 0.5
v -1.7 -0.8 0.5
v -3.9 -0.8 -0.5
v -3.8 -0.8 -0.5
v -1.7 -0.8 -0.5
v -3.9 -0.8 -0.7
v -3.8 -0.8 -0.7
v -1.7 -0.8 -0.7
v -3.9 -0.7 0.8
v -3.8 -0.7 0.8
v -2.0 -0.7 0.8
v -1.7 -0.7 0.8
v -3.9 -0.7 0.7
v -3.8 -0.7 0.7
v -2.0 -0.7 0.7
v -1.7 -0.7 0.7
v -3.9 -0.7 -0.7
v -3.8 -0.7 -0.7
v -1.7 -0.7 -0.7
v -3.9 -0.7 -0.8
v -3.8 -0.7 -0.8
v -1.7 -0.7 -0.8
v -3.9 -0.5 0.9
v -3.8 -0.5 0.9
v -2.0 -0.5 0.9
v -1.7 -0.5 0.9
v -3.9 -0.5 0.8
v -3.8 -0.5 0.8
v -2.0 -0.5 0.8
v -1.7 -0.5 0.8
v -3.9 -0.5 -0.8
v -3.8 -0.5 -0.8
v -1.7 -0.5 -0.8
v -3.9 -0.5 -0.9
v -3.8 -0.5 -0.9
v -1.7 -0.5 -0.9
v -3.9 -0.3 1.0
v -3.8 -0.3 1.0
v -2.4 -0.3 1.0
v -1.7 -0.3 1.0
v -3.9 -0.3 0.9
v -3.8 -0.3 0.9
v -2.4 -0.3 0.9
v -1.7 -0.3 0.9
v -3.9 -0.3 -0.9
v -3.8 -0.3 -0.9
v -1.7 -0.3 -0.9
v -3.9 -0.3 -1.0
v -3.8 -0.3 -1.0
v -1.7 -0.3 -1.0
v -3.9 0.3 1.0
v -3.8 0.3 1.0
v -2.6 0.3 1.0
v -1.7 0.3 1.0
v -3.9 0.3 0.9
v -3.8 0.3 0.9
v -3.3 0.3 0.9
v -2.6 0.3 0.9
v -2.0 0.3 0.9
v -1.7 0.3 0.9
v -3.9 0.3 -0.9
v -3.8 0.3 -0.9
v -2.4 0.3 -0.9
v -1.7 0.3 -0.9
v -3.9 0.3 -1.0
v -3.8 0.3 -1.0
v -1.7 0.3 -1.0
v -3.9 0.5 0.9
v -3.8 0.5 0.9
v -3.3 0.5 0.9
v -2.0 0.5 0.9
v -1.7 0.5 0.9
v -3.9 0.5 0.8
v -3.8 0.5 0.8
v -3.3 0.5 0.8
v -2.0 0.5 0.8
v -1.7 0.5 0.8
v -3.9 0.5 -0.8
v -3.8 0.5 -0.8
v -2.4 0.5 -0.8
v -1.7 0.5 -0.8
v -3.9 0.5 -0.9
v -3.8 0.5 -0.9
v -2.4 0.5 -0.9
v -1.7 0.5 -0.9
v -3.9 0.7 0.8
v -3.8 0.7 0.8
v -2.4 0.7 0.8
v -1.7 0.7 0.8
v -3.9 0.7 0.7
v -3.8 0.7 0.7
v -2.4 0.7 0.7
v -1.7 0.7 0.7
v -3.9 0.7 -0.7
v -3.8 0.7 -0.7
v -3.3 0.7 -0.7
v -1.7 0.7 -0.7
v -3.9 0.7 -0.8
v -3.8 0.7 -0.8
v -3.3 0.7 -0.8
v -1.7 0.7 -0.8
v -3.9 0.8 0.7
v -3.8 0.8 0.7
v -2.4 0.8 0.7
v -1.7 0.8 0.7
v -3.9 0.8 0.5
v -3.8 0.8 0.5
v -2.4 0.8 0.5
v -1.7 0.8 0.5
v -3.9 0.8 -0.5
v -3.8 0.8 -0.5
v -3.6 0.8 -0.5
v -2.0 0.8 -0.5
v -1.7 0.8 -0.5
v -3.6 0.8 -0.6
v -3.3 0.8 -0.6
v -2.0 0.8 -0.6
v -1.7 0.8 -0.6
v -3.9 0.8 -0.7
v -3.8 0.8 -0.7
v -3.3 0.8 -0.7
v -1.7 0.8 -0.7
v -3.9 0.9 0.5
v -3.8 0.9 0.5
v -2.4 0.9 0.5
v -1.7 0.9 0.5
v -3.9 0.9 0.3
v -3.8 0.9 0.3
v -3.0 0.9 0.3
v -2.4 0.9 0.3
v -1.7 0.9 0.3
v -3.9 0.9 -0.3
v -3.8 0.9 -0.3
v -3.6 0.9 -0.3
v -2.6 0.9 -0.3
v -2.0 0.9 -0.3
v -1.7 0.9 -0.3
v -3.9 0.9 -0.5
v -3.8 0.9 -0.5
v -3.6 0.9 -0.5
v -2.0 0.9 -0.5
v -1.7 0.9 -0.5
v -3.9 1.0 0.3
v -3.8 1.0 0.3
v -3.0 1.0 0.3
v -1.7 1.0 0.3
v -3.0 1.0 0.0999999
v -2.6 1.0 0.0999999
v -3.9 1.0 -0.3
v -3.8 1.0 -0.3
v -2.6 1.0 -0.3
v -1.7 1.0 -0.3

# faces
f 45/3/2 46/3/2 48/3/2
f 48/3/2 46/3/2 49/3/2
f 47/3/2 48/3/2 52/3/2
f 49/3/2 50/3/2 52/3/2
f 48/3/2 49/3/2 52/3/2
f 52/3/2 50/3/2 53/3/2
f 51/3/2 52/3/2 56/3/2
f 53/3/2 54/3/2 56/3/2
f 52/3/2 53/3/2 56/3/2
f 56/3/2 54/3/2 57/3/2
f 57/3/2 54/3/2 58/3/2
f 55/1/2 56/1/2 61/1/2
f 56/1/2 57/1/2 61/1/2
f 58/3/2 59/3/2 62/3/2
f 57/3/2 58/3/2 62/3/2
f 60/1/2 61/1/2 64/1/2
f 62/3/2 63/3/2 64/3/2
f 57/3/2 62/3/2 64/3/2
f 61/1/2 57/1/2 64/1/2
f 64/3/2 63/3/2 65/3/2
f 60/1/2 64/1/2 67/1/2
f 64/1/2 65/1/2 67/1/2
f 65/3/2 63/3/2 68/3/2
f 66/1/2 67/1/2 70/1/2
f 68/3/2 69/3/2 70/3/2
f 65/3/2 68/3/2 70/3/2
f 67/1/2 65/1/2 70/1/2
f 70/3/2 69/3/2 71/3/2
f 66/1/2 70/1/2 72/1/2
f 70/1/2 71/1/2 72/1/2
f 72/1/2 71/1/2 73/1/2
f 73/1/2 71/1/2 74/1/2
f 71/3/2 69/3/2 75/3/2
f 74/1/2 71/1/2 75/1/2
f 75/3/2 69/3/2 76/3/2
f 73/3/2 74/3/2 77/3/2
f 77/3/2 74/3/2 78/3/2
f 74/1/2 75/1/2 79/1/2
f 79/1/2 75/1/2 80/1/2
f 78/3/2 74/3/2 81/3/2
f 74/1/2 79/1/2 81/1/2
f 81/1/2 79/1/2 82/1/2
f 78/3/2 81/3/2 83/3/2
f 81/3/2 82/3/2 83/3/2
f 83/3/2 82/3/2 84/3/2
f 82/1/2 79/1/2 85/1/2
f 85/1/2 79/1/2 86/1/2
f 84/3/2 82/3/2 87/3/2
f 87/3/2 82/3/2 88/3/2
f 88/3/2 82/3/2 89/3/2
f 82/1/2 85/1/2 90/1/2
f 89/3/2 82/3/2 90/3/2
f 90/1/2 85/1/2 91/1/2
f 88/3/2 89/3/2 92/3/2
f 92/3/2 89/3/2 93/3/2
f 93/3/2 89/3/2 94/3/2
f 94/3/2 89/3/2 95/3/2
f 93/3/2 94/3/2 96/3/2
f 96/3/2 94/3/2 97/3/2
f 100/2/3 99/2/3 98/2/3
f 101/2/3 99/2/3 100/2/3
f 102/3/3 101/3/3 100/3/3
f 103/3/3 101/3/3 102/3/3
f 104/3/3 102/3/3 100/3/3
f 105/1/3 103/1/3 102/1/3
f 105/3/3 102/3/3 104/3/3
f 106/1/3 105/1/3 104/1/3
f 107/1/3 103/1/3 105/1/3
f 107/1/3 105/1/3 106/1/3
f 112/2/3 109/2/3 108/2/3
f 113/2/3 109/2/3 112/2/3
f 114/2/3 111/2/3 110/2/3
f 115/2/3 111/2/3 114/2/3
f 116/3/3 115/3/3 114/3/3
f 117/3/3 115/3/3 116/3/3
f 118/1/3 117/1/3 116/1/3
f 119/3/3 113/3/3 112/3/3
f 120/3/3 113/3/3 119/3/3
f 121/3/3 119/3/3 112/3/3
f 122/1/3 120/1/3 119/1/3
f 122/3/3 119/3/3 121/3/3
f 123/1/3 117/1/3 118/1/3
f 124/1/3 117/1/3 123/1/3
f 125/1/3 122/1/3 121/1/3
f 126/1/3 120/1/3 122/1/3
f 126/1/3 122/1/3 125/1/3
f 127/3/3 124/3/3 123/3/3
f 128/3/3 124/3/3 127/3/3
f 133/2/3 130/2/3 129/2/3
f 134/2/3 130/2/3 133/2/3
f 135/2/3 132/2/3 131/2/3
f 136/2/3 132/2/3 135/2/3
f 137/2/3 132/2/3 136/2/3
f 138/3/3 136/3/3 135/3/3
f 139/1/3 137/1/3 136/1/3
f 139/3/3 136/3/3 138/3/3
f 140/1/3 139/1/3 138/1/3
f 140/1/3 137/1/3 139/1/3
f 141/1/3 137/1/3 140/1/3
f 142/3/3 134/3/3 133/3/3
f 143/3/3 134/3/3 142/3/3
f 144/1/3 140/1/3 138/1/3
f 145/3/3 141/3/3 140/3/3
f 145/1/3 140/1/3 144/1/3
f 146/1/3 143/1/3 142/1/3
f 147/1/3 143/1/3 146/1/3
f 148/3/3 145/3/3 144/3/3
f 149/3/3 141/3/3 145/3/3
f 149/3/3 145/3/3 148/3/3
f 154/2/3 151/2/3 150/2/3
f 155/2/3 151/2/3 154/2/3
f 156/2/3 153/2/3 152/2/3
f 157/2/3 153/2/3 156/2/3
f 158/1/3 157/1/3 156/1/3
f 159/1/3 157/1/3 158/1/3
f 160/3/3 155/3/3 154/3/3
f 161/3/3 160/3/3 154/3/3
f 162/3/3 160/3/3 161/3/3
f 163/3/3 159/3/3 158/3/3
f 164/3/3 159/3/3 163/3/3
f 169/2/3 166/2/3 165/2/3
f 170/2/3 166/2/3 169/2/3
f 171/2/3 168/2/3 167/2/3
f 172/2/3 168/2/3 171/2/3
f 173/1/3 172/1/3 171/1/3
f 174/1/3 172/1/3 173/1/3
f 175/3/3 170/3/3 169/3/3
f 176/3/3 170/3/3 175/3/3
f 177/3/3 174/3/3 173/3/3
f 178/3/3 174/3/3 177/3/3
f 183/2/3 180/2/3 179/2/3
f 184/2/3 180/2/3 183/2/3
f 185/2/3 182/2/3 181/2/3
f 186/2/3 182/2/3 185/2/3
f 187/1/3 186/1/3 185/1/3
f 188/1/3 186/1/3 187/1/3
f 189/3/3 188/3/3 187/3/3
f 190/3/3 184/3/3 183/3/3
f 191/3/3 184/3/3 190/3/3
f 192/3/3 188/3/3 189/3/3
f 193/3/3 188/3/3 192/3/3
f 194/2/4 195/2/4 198/2/4
f 198/2/4 195/2/4 199/2/4
f 196/2/4 197/2/4 200/2/4
f 200/2/4 197/2/4 201/2/4
f 200/1/4 201/1/4 202/1/4
f 202/1/4 201/1/4 203/1/4
f 203/1/4 201/1/4 204/1/4
f 203/3/4 204/3/4 205/3/4
f 198/3/4 199/3/4 206/3/4
f 206/3/4 199/3/4 207/3/4
f 205/3/4 204/3/4 208/3/4
f 208/3/4 204/3/4 209/3/4
f 210/2/4 211/2/4 214/2/4
f 214/2/4 211/2/4 215/2/4
f 212/2/4 213/2/4 216/2/4
f 216/2/4 213/2/4 217/2/4
f 216/3/4 217/3/4 218/3/4
f 218/3/4 217/3/4 219/3/4
f 218/1/4 219/1/4 220/1/4
f 220/1/4 219/1/4 221/1/4
f 214/3/4 215/3/4 222/3/4
f 222/3/4 215/3/4 223/3/4
f 220/3/4 221/3/4 224/3/4
f 224/3/4 221/3/4 225/3/4
f 226/2/4 227/2/4 230/2/4
f 230/2/4 227/2/4 231/2/4
f 228/2/4 229/2/4 232/2/4
f 232/2/4 229/2/4 233/2/4
f 232/3/4 233/3/4 234/3/4
f 234/3/4 233/3/4 235/3/4
f 230/3/4 231/3/4 236/3/4
f 236/3/4 231/3/4 237/3/4
f 234/1/4 235/1/4 238/1/4
f 238/1/4 235/1/4 239/1/4
f 240/2/4 241/2/4 244/2/4
f 244/2/4 241/2/4 245/2/4
f 242/2/4 243/2/4 246/2/4
f 246/2/4 243/2/4 247/2/4
f 246/3/4 247/3/4 248/3/4
f 248/3/4 247/3/4 249/3/4
f 246/3/4 248/3/4 250/3/4
f 248/1/4 249/1/4 251/1/4
f 250/3/4 248/3/4 251/3/4
f 244/3/4 245/3/4 252/3/4
f 252/3/4 245/3/4 253/3/4
f 250/1/4 251/1/4 254/1/4
f 251/1/4 249/1/4 255/1/4
f 254/1/4 251/1/4 255/1/4
f 256/2/4 257/2/4 260/2/4
f 260/2/4 257/2/4 261/2/4
f 258/2/4 259/2/4 262/2/4
f 262/2/4 259/2/4 263/2/4
f 262/3/4 263/3/4 264/3/4
f 264/3/4 263/3/4 265/3/4
f 260/3/4 261/3/4 266/3/4
f 266/3/4 261/3/4 267/3/4
f 264/1/4 265/1/4 268/1/4
f 268/1/4 265/1/4 269/1/4
f 270/2/4 271/2/4 272/2/4
f 272/2/4 271/2/4 273/2/4
f 272/3/4 273/3/4 274/3/4
f 274/3/4 273/3/4 275/3/4
f 279/2/5 277/2/5 276/2/5
f 280/3/5 278/3/5 277/3/5
f 280/2/5 277/2/5 279/2/5
f 281/3/5 278/3/5 280/3/5
f 285/2/5 283/2/5 282/2/5
f 286/3/5 284/3/5 283/3/5
f 286/2/5 283/2/5 285/2/5
f 287/3/5 284/3/5 286/3/5
f 291/2/5 289/2/5 288/2/5
f 292/3/5 290/3/5 289/3/5
f 292/2/5 289/2/5 291/2/5
f 293/3/5 290/3/5 292/3/5
f 297/2/5 295/2/5 294/2/5
f 298/3/5 296/3/5 295/3/5
f 298/2/5 295/2/5 297/2/5
f 299/3/5 296/3/5 298/3/5
f 303/2/5 301/2/5 300/2/5
f 304/3/5 302/3/5 301/3/5
f 304/2/5 301/2/5 303/2/5
f 305/3/5 302/3/5 304/3/5
f 310/2/5 307/2/5 306/2/5
f 311/3/5 308/3/5 307/3/5
f 311/2/5 307/2/5 310/2/5
f 312/1/5 309/1/5 308/1/5
f 312/3/5 308/3/5 311/3/5
f 313/1/5 309/1/5 312/1/5
f 317/2/5 315/2/5 314/2/5
f 318/3/5 316/3/5 315/3/5
f 318/2/5 315/2/5 317/2/5
f 319/3/5 316/3/5 318/3/5
f 324/2/5 321/2/5 320/2/5
f 325/3/5 322/3/5 321/3/5
f 325/2/5 321/2/5 324/2/5
f 326/1/5 323/1/5 322/1/5
f 326/3/5 322/3/5 325/3/5
f 327/1/5 323/1/5 326/1/5
f 331/2/5 329/2/5 328/2/5
f 332/3/5 330/3/5 329/3/5
f 332/2/5 329/2/5 331/2/5
f 333/3/5 330/3/5 332/3/5
f 338/2/5 335/2/5 334/2/5
f 339/3/5 336/3/5 335/3/5
f 339/2/5 335/2/5 338/2/5
f 340/1/5 337/1/5 336/1/5
f 340/3/5 336/3/5 339/3/5
f 341/1/5 337/1/5 340/1/5
f 345/2/5 343/2/5 342/2/5
f 346/3/5 344/3/5 343/3/5
f 346/2/5 343/2/5 345/2/5
f 347/3/5 344/3/5 346/3/5
f 348/2/6 349/2/6 352/2/6
f 349/3/6 350/3/6 353/3/6
f 352/2/6 349/2/6 353/2/6
f 353/3/6 350/3/6 354/3/6
f 350/1/6 351/1/6 355/1/6
f 354/3/6 350/3/6 355/3/6
f 355/1/6 351/1/6 356/1/6
f 356/1/6 351/1/6 357/1/6
f 358/2/6 359/2/6 362/2/6
f 360/3/6 361/3/6 363/3/6
f 362/2/6 359/2/6 363/2/6
f 359/3/6 360/3/6 363/3/6
f 363/3/6 361/3/6 364/3/6
f 365/2/6 366/2/6 370/2/6
f 366/3/6 367/3/6 371/3/6
f 370/2/6 366/2/6 371/2/6
f 367/1/6 368/1/6 372/1/6
f 371/3/6 367/3/6 372/3/6
f 368/3/6 369/3/6 373/3/6
f 372/1/6 368/1/6 373/1/6
f 373/3/6 369/3/6 374/3/6
f 375/2/6 376/2/6 379/2/6
f 376/3/6 377/3/6 380/3/6
f 379/2/6 376/2/6 380/2/6
f 377/1/6 378/1/6 381/1/6
f 380/3/6 377/3/6 381/3/6
f 381/1/6 378/1/6 382/1/6
f 383/2/6 384/2/6 387/2/6
f 384/1/6 385/1/6 388/1/6
f 387/2/6 384/2/6 388/2/6
f 385/3/6 386/3/6 389/3/6
f 388/1/6 385/1/6 389/1/6
f 389/3/6 386/3/6 390/3/6
f 391/2/6 392/2/6 395/2/6
f 392/3/6 393/3/6 396/3/6
f 395/2/6 392/2/6 396/2/6
f 393/1/6 394/1/6 397/1/6
f 396/3/6 393/3/6 397/3/6
f 397/1/6 394/1/6 398/1/6
f 399/2/6 400/2/6 403/2/6
f 400/1/6 401/1/6 404/1/6
f 403/2/6 400/2/6 404/2/6
f 401/3/6 402/3/6 405/3/6
f 404/1/6 401/1/6 405/1/6
f 405/3/6 402/3/6 406/3/6
f 408/3/6 409/3/6 412/3/6
f 409/1/6 410/1/6 412/1/6
f 412/1/6 410/1/6 413/1/6
f 410/3/6 411/3/6 414/3/6
f 413/1/6 410/1/6 414/1/6
f 414/3/6 411/3/6 415/3/6
f 407/2/6 408/2/6 416/2/6
f 412/3/6 413/3/6 417/3/6
f 416/2/6 408/2/6 417/2/6
f 408/3/6 412/3/6 417/3/6
f 414/1/6 415/1/6 418/1/6
f 417/3/6 413/3/6 418/3/6
f 413/1/6 414/1/6 418/1/6
f 418/1/6 415/1/6 419/1/6
f 420/2/6 421/2/6 424/2/6
f 421/1/6 422/1/6 425/1/6
f 424/2/6 421/2/6 425/2/6
f 425/1/6 422/1/6 426/1/6
f 422/3/6 423/3/6 427/3/6
f 426/1/6 422/1/6 427/1/6
f 427/3/6 423/3/6 428/3/6
f 429/2/6 430/2/6 435/2/6
f 430/3/6 431/3/6 436/3/6
f 435/2/6 430/2/6 436/2/6
f 431/1/6 432/1/6 437/1/6
f 436/3/6 431/3/6 437/3/6
f 432/1/6 433/1/6 437/1/6
f 433/3/6 434/3/6 438/3/6
f 437/1/6 433/1/6 438/1/6
f 438/3/6 434/3/6 439/3/6
f 441/1/6 442/1/6 444/1/6
f 442/3/6 443/3/6 444/3/6
f 444/3/6 443/3/6 445/3/6
f 440/2/6 441/2/6 446/2/6
f 441/1/6 444/1/6 447/1/6
f 446/2/6 441/2/6 447/2/6
f 444/1/6 445/1/6 447/1/6
f 445/3/6 443/3/6 448/3/6
f 447/1/6 445/1/6 448/1/6
f 448/3/6 443/3/6 449/3/6